<?xml version="1.0" encoding="UTF-8" standalone="no"?>
<!DOCTYPE svg PUBLIC "-//W3C//DTD SVG 1.1//EN" "http://www.w3.org/Graphics/SVG/1.1/DTD/svg11.dtd">
<svg xmlns="http://www.w3.org/2000/svg" version="1.1" viewBox="0.00 0.00 512.00 512.00">
<g stroke-width="5.00" fill="none" stroke-linecap="butt">
<path stroke="#9d9899" vector-effect="non-scaling-stroke" d="
  M 202.96 360.55
  C 206.56 362.11 209.88 364.02 213.95 364.02
  Q 255.23 364.04 296.50 363.99
  Q 297.39 363.99 298.24 363.67
  Q 345.77 346.22 365.17 299.47
  Q 377.23 270.42 375.77 235.57
  Q 375.76 235.26 375.44 235.26
  L 133.24 235.26
  Q 132.69 235.26 132.68 235.81
  Q 131.50 269.92 143.99 300.46
  Q 161.13 342.39 202.96 360.55"
/>
<path stroke="#9d9899" vector-effect="non-scaling-stroke" d="
  M 423.16 274.43
  C 412.43 298.40 392.44 313.05 367.57 320.68
  A 1.32 1.29 7.5 0 0 366.89 321.19
  L 359.57 332.33
  Q 359.35 332.67 359.74 332.60
  C 392.64 326.60 422.48 305.50 433.91 273.46
  Q 436.65 265.77 436.40 260.69
  C 435.83 249.08 425.61 239.47 414.24 239.03
  C 406.87 238.74 395.97 242.51 387.73 244.78
  Q 387.14 244.95 387.12 245.57
  L 386.92 254.43
  Q 386.91 254.95 387.41 254.82
  Q 398.20 252.00 409.02 249.34
  C 418.17 247.09 427.29 253.46 426.64 263.05
  C 426.43 266.29 424.42 271.62 423.16 274.43"
/>
<path stroke="#9d9899" vector-effect="non-scaling-stroke" d="
  M 93.95 375.40
  C 118.92 388.85 144.30 399.62 173.27 402.34
  Q 180.36 403.00 193.25 403.00
  Q 256.25 402.99 319.26 403.01
  Q 332.08 403.01 339.23 402.29
  Q 360.85 400.13 381.23 392.70
  C 393.03 388.40 406.20 381.74 418.23 375.60
  A 0.20 0.19 -57.9 0 0 418.15 375.23
  L 93.99 375.24
  A 0.08 0.08 0.0 0 0 93.95 375.40"
/>
</g>
<path fill="#3a3033" d="
  M 241.42 123.77
  C 238.52 107.92 243.81 91.10 254.76 79.38
  A 0.60 0.59 44.0 0 1 255.62 79.37
  L 262.35 86.14
  Q 262.67 86.46 262.39 86.83
  Q 240.34 115.14 262.77 143.21
  Q 263.19 143.73 262.68 144.17
  L 255.46 150.24
  Q 255.02 150.61 254.65 150.18
  Q 244.01 137.94 241.42 123.77
  Z"
/>
<path fill="#3a3033" d="
  M 276.67 180.11
  C 291.71 162.96 292.01 141.15 277.07 123.95
  Q 276.71 123.53 277.10 123.14
  L 283.80 116.49
  A 0.85 0.85 0.0 0 1 285.04 116.53
  C 303.90 137.92 303.25 165.84 285.07 187.29
  Q 284.74 187.68 284.35 187.36
  L 276.74 181.04
  Q 276.23 180.61 276.67 180.11
  Z"
/>
<path fill="#3a3033" d="
  M 223.85 209.73
  C 205.41 188.79 204.80 159.50 223.89 138.85
  Q 224.29 138.42 224.70 138.83
  L 231.55 145.68
  Q 231.96 146.09 231.58 146.54
  Q 212.54 169.35 226.48 195.05
  C 227.87 197.61 230.15 200.28 231.97 202.86
  Q 232.27 203.28 231.87 203.61
  L 224.54 209.78
  Q 224.17 210.08 223.85 209.73
  Z"
/>
<path fill="#3a3033" d="
  M 323.75 364.25
  L 464.76 364.25
  A 0.18 0.18 0.0 0 1 464.84 364.60
  Q 433.47 379.99 401.94 395.36
  Q 369.78 411.04 334.36 413.50
  Q 328.26 413.93 314.37 413.95
  Q 256.11 414.08 197.86 413.96
  Q 184.02 413.93 177.86 413.50
  Q 142.06 411.00 109.60 395.13
  Q 78.32 379.84 47.63 364.74
  Q 46.64 364.25 47.75 364.25
  L 184.53 364.25
  Q 185.25 364.25 184.63 363.88
  Q 156.91 347.38 140.84 319.47
  Q 137.47 313.61 133.38 303.57
  Q 122.98 278.05 121.47 248.20
  Q 120.79 234.77 122.24 224.67
  Q 122.33 224.06 122.95 224.06
  L 385.57 224.05
  Q 386.08 224.05 386.13 224.56
  L 387.07 232.81
  A 0.44 0.43 79.1 0 0 387.61 233.18
  C 396.14 230.90 405.96 227.21 414.79 227.75
  C 436.15 229.05 451.17 248.61 446.85 269.51
  Q 445.50 276.08 441.52 284.56
  C 424.70 320.47 387.39 343.03 348.34 345.22
  Q 347.81 345.25 347.43 345.63
  Q 336.68 356.22 323.66 363.93
  Q 323.12 364.25 323.75 364.25
  Z
  M 202.96 360.55
  C 206.56 362.11 209.88 364.02 213.95 364.02
  Q 255.23 364.04 296.50 363.99
  Q 297.39 363.99 298.24 363.67
  Q 345.77 346.22 365.17 299.47
  Q 377.23 270.42 375.77 235.57
  Q 375.76 235.26 375.44 235.26
  L 133.24 235.26
  Q 132.69 235.26 132.68 235.81
  Q 131.50 269.92 143.99 300.46
  Q 161.13 342.39 202.96 360.55
  Z
  M 423.16 274.43
  C 412.43 298.40 392.44 313.05 367.57 320.68
  A 1.32 1.29 7.5 0 0 366.89 321.19
  L 359.57 332.33
  Q 359.35 332.67 359.74 332.60
  C 392.64 326.60 422.48 305.50 433.91 273.46
  Q 436.65 265.77 436.40 260.69
  C 435.83 249.08 425.61 239.47 414.24 239.03
  C 406.87 238.74 395.97 242.51 387.73 244.78
  Q 387.14 244.95 387.12 245.57
  L 386.92 254.43
  Q 386.91 254.95 387.41 254.82
  Q 398.20 252.00 409.02 249.34
  C 418.17 247.09 427.29 253.46 426.64 263.05
  C 426.43 266.29 424.42 271.62 423.16 274.43
  Z
  M 374.51 305.15
  Q 374.34 305.56 374.26 306.07
  Q 374.21 306.43 374.55 306.30
  C 389.99 300.31 403.94 288.92 411.16 273.90
  Q 413.51 269.02 415.27 263.88
  C 416.02 261.67 414.56 259.40 412.01 260.03
  Q 398.86 263.26 385.74 266.73
  Q 385.25 266.86 385.17 267.36
  Q 381.98 286.87 374.51 305.15
  Z
  M 93.95 375.40
  C 118.92 388.85 144.30 399.62 173.27 402.34
  Q 180.36 403.00 193.25 403.00
  Q 256.25 402.99 319.26 403.01
  Q 332.08 403.01 339.23 402.29
  Q 360.85 400.13 381.23 392.70
  C 393.03 388.40 406.20 381.74 418.23 375.60
  A 0.20 0.19 -57.9 0 0 418.15 375.23
  L 93.99 375.24
  A 0.08 0.08 0.0 0 0 93.95 375.40
  Z"
/>
<path fill="#ffffff" d="
  M 202.96 360.55
  Q 161.13 342.39 143.99 300.46
  Q 131.50 269.92 132.68 235.81
  Q 132.69 235.26 133.24 235.26
  L 375.44 235.26
  Q 375.76 235.26 375.77 235.57
  Q 377.23 270.42 365.17 299.47
  Q 345.77 346.22 298.24 363.67
  Q 297.39 363.99 296.50 363.99
  Q 255.23 364.04 213.95 364.02
  C 209.88 364.02 206.56 362.11 202.96 360.55
  Z"
/>
<path fill="#ffffff" d="
  M 423.16 274.43
  C 424.42 271.62 426.43 266.29 426.64 263.05
  C 427.29 253.46 418.17 247.09 409.02 249.34
  Q 398.20 252.00 387.41 254.82
  Q 386.91 254.95 386.92 254.43
  L 387.12 245.57
  Q 387.14 244.95 387.73 244.78
  C 395.97 242.51 406.87 238.74 414.24 239.03
  C 425.61 239.47 435.83 249.08 436.40 260.69
  Q 436.65 265.77 433.91 273.46
  C 422.48 305.50 392.64 326.60 359.74 332.60
  Q 359.35 332.67 359.57 332.33
  L 366.89 321.19
  A 1.32 1.29 7.5 0 1 367.57 320.68
  C 392.44 313.05 412.43 298.40 423.16 274.43
  Z"
/>
<path fill="#ffffff" d="
  M 173.27 402.34
  C 144.30 399.62 118.92 388.85 93.95 375.40
  A 0.09 0.08 4.4 0 1 93.99 375.24
  L 418.15 375.23
  A 0.20 0.19 -57.9 0 1 418.23 375.60
  C 406.20 381.74 393.03 388.40 381.23 392.70
  Q 360.85 400.13 339.23 402.29
  Q 332.08 403.01 319.26 403.01
  Q 256.25 402.99 193.25 403.00
  Q 180.36 403.00 173.27 402.34
  Z"
/>
<rect fill="#3a3033" x="183.50" y="422.51" width="145.00" height="10.74" rx="0.35"/>
</svg>
