<?xml version="1.0" encoding="UTF-8" standalone="no"?>
<!DOCTYPE svg PUBLIC "-//W3C//DTD SVG 1.1//EN" "http://www.w3.org/Graphics/SVG/1.1/DTD/svg11.dtd">
<svg xmlns="http://www.w3.org/2000/svg" version="1.1" viewBox="0.00 0.00 38.00 44.00">
<path fill="#ffffff" d="
  M 11.42 44.00
  L 7.82 44.00
  L 7.77 23.79
  A 0.72 0.70 -80.1 0 0 7.31 23.12
  C -8.59 17.22 6.18 -8.99 16.15 5.01
  C 20.48 11.08 20.45 20.38 11.97 22.97
  A 0.71 0.70 82.0 0 0 11.48 23.63
  L 11.42 44.00
  Z
  M 13.16 18.60
  C 17.83 15.31 14.10 7.34 10.70 4.73
  A 1.23 1.21 59.3 0 0 9.76 4.48
  C 4.36 5.29 0.68 17.87 8.48 19.51
  Q 11.10 20.06 13.16 18.60
  Z"
/>
<path fill="#ffffff" d="
  M 32.06 44.00
  L 28.47 44.00
  L 28.42 21.78
  A 0.78 0.78 0.0 0 0 27.94 21.06
  C 24.07 19.43 22.84 16.80 22.78 12.52
  Q 22.69 6.88 22.78 1.25
  Q 22.78 0.75 23.28 0.75
  L 25.98 0.75
  Q 26.48 0.75 26.49 1.26
  Q 26.53 7.77 26.48 14.25
  C 26.46 17.70 31.38 18.83 33.21 16.22
  C 34.79 13.98 33.99 4.35 34.02 1.25
  Q 34.02 0.75 34.52 0.75
  L 37.23 0.76
  Q 37.74 0.76 37.74 1.27
  Q 37.76 6.44 37.76 11.57
  C 37.77 16.29 36.99 19.33 32.53 20.97
  A 0.72 0.72 0.0 0 0 32.05 21.65
  L 32.06 44.00
  Z"
/>
<rect fill="#ffffff" x="28.39" y="0.69" width="3.72" height="14.88" rx="0.98"/>
</svg>
