<?xml version="1.0" encoding="UTF-8" standalone="no"?>
<!DOCTYPE svg PUBLIC "-//W3C//DTD SVG 1.1//EN" "http://www.w3.org/Graphics/SVG/1.1/DTD/svg11.dtd">
<svg xmlns="http://www.w3.org/2000/svg" version="1.1" viewBox="0.00 0.00 61.00 64.00">
<path fill="#ffffff" d="
  M 50.60 47.23
  L 54.92 45.98
  Q 55.54 45.80 55.70 46.43
  L 56.33 48.97
  Q 56.44 49.41 56.01 49.53
  L 42.66 53.38
  A 0.62 0.62 0.0 0 1 41.89 52.94
  L 41.22 50.28
  Q 41.13 49.92 41.49 49.82
  L 45.91 48.56
  Q 46.49 48.39 46.33 47.80
  L 45.02 42.98
  Q 44.87 42.45 44.32 42.39
  Q 36.56 41.59 34.59 33.98
  Q 32.64 26.47 30.92 21.11
  Q 30.66 20.28 30.40 21.11
  Q 26.88 32.27 25.89 35.96
  Q 23.87 43.47 16.29 44.28
  Q 15.69 44.35 15.54 44.92
  L 14.27 49.66
  Q 14.12 50.22 14.67 50.39
  L 19.05 51.75
  Q 19.47 51.88 19.35 52.31
  L 18.64 54.77
  Q 18.45 55.42 17.80 55.23
  L 4.68 51.45
  A 0.62 0.62 0.0 0 1 4.25 50.69
  L 4.91 48.29
  Q 5.07 47.72 5.64 47.88
  L 9.97 49.10
  Q 10.52 49.25 10.67 48.70
  L 12.01 43.71
  Q 12.14 43.19 11.70 42.89
  C 6.69 39.42 6.84 34.98 8.48 29.24
  Q 11.05 20.23 13.75 11.22
  Q 13.92 10.66 14.48 10.83
  L 28.32 14.84
  Q 28.87 15.00 29.03 14.46
  L 29.12 14.14
  Q 29.27 13.66 29.76 13.52
  L 46.26 8.81
  Q 46.81 8.65 46.97 9.20
  Q 49.90 19.13 52.66 28.95
  Q 54.82 36.65 48.71 41.11
  Q 48.35 41.37 48.47 41.81
  L 49.93 46.85
  Q 50.08 47.38 50.60 47.23
  Z
  M 34.83 21.37
  A 0.45 0.45 0.0 0 0 35.27 21.70
  L 46.12 21.65
  A 0.45 0.45 0.0 0 0 46.55 21.08
  L 44.50 13.65
  A 0.45 0.45 0.0 0 0 43.94 13.33
  L 33.90 16.21
  A 0.45 0.45 0.0 0 0 33.59 16.76
  L 34.83 21.37
  Z
  M 16.75 15.38
  A 0.33 0.33 0.0 0 0 16.35 15.60
  L 14.10 23.08
  A 0.33 0.33 0.0 0 0 14.41 23.51
  L 25.56 23.50
  A 0.33 0.33 0.0 0 0 25.88 23.26
  L 27.14 18.65
  A 0.33 0.33 0.0 0 0 26.91 18.24
  L 16.75 15.38
  Z
  M 36.52 25.36
  A 0.31 0.31 0.0 0 0 36.21 25.73
  C 36.87 29.05 38.28 35.45 40.88 37.49
  C 43.83 39.80 49.19 38.15 49.41 33.97
  Q 49.60 30.36 47.82 25.88
  Q 47.62 25.37 47.07 25.37
  L 36.52 25.36
  Z
  M 24.46 27.81
  Q 24.60 27.25 24.02 27.25
  L 13.51 27.25
  Q 12.96 27.25 12.77 27.77
  C 11.38 31.65 9.34 37.70 14.17 39.87
  C 21.33 43.10 23.33 32.28 24.46 27.81
  Z"
/>
</svg>
