<?xml version="1.0" encoding="UTF-8" standalone="no"?>
<!DOCTYPE svg PUBLIC "-//W3C//DTD SVG 1.1//EN" "http://www.w3.org/Graphics/SVG/1.1/DTD/svg11.dtd">
<svg xmlns="http://www.w3.org/2000/svg" version="1.1" viewBox="0.00 0.00 52.00 57.00">
<g stroke-width="5.00" fill="none" stroke-linecap="butt">
<path stroke="#f3f3f3" stroke-opacity="0.525" vector-effect="non-scaling-stroke" d="
  M 47.92 25.51
  L 47.27 32.69"
/>
<path stroke="#dbdbdb" stroke-opacity="0.584" vector-effect="non-scaling-stroke" d="
  M 47.27 32.69
  C 44.63 36.17 42.28 35.69 38.31 35.57
  Q 37.83 35.56 37.80 36.03
  L 37.44 40.87"
/>
<path stroke="#f3f3f3" stroke-opacity="0.525" vector-effect="non-scaling-stroke" d="
  M 37.44 40.87
  Q 36.95 41.96 37.07 44.35"
/>
<path stroke="#dbdbdb" stroke-opacity="0.584" vector-effect="non-scaling-stroke" d="
  M 37.07 44.35
  Q 35.29 48.73 30.51 48.74
  Q 21.50 48.77 12.49 48.71
  Q 10.05 48.70 8.32 45.16"
/>
<path stroke="#f3f3f3" stroke-opacity="0.525" vector-effect="non-scaling-stroke" d="
  M 8.32 45.16
  L 4.69 10.87"
/>
<path stroke="#f3f3f3" stroke-opacity="0.525" vector-effect="non-scaling-stroke" d="
  M 9.58 20.59
  Q 10.85 35.98 12.07 43.99
  Q 12.19 44.80 13.29 44.98"
/>
<path stroke="#f3f3f3" stroke-opacity="0.525" vector-effect="non-scaling-stroke" d="
  M 30.95 44.98
  Q 32.85 45.24 33.08 43.75
  Q 34.05 37.37 35.85 17.44"
/>
<path stroke="#dbdbdb" stroke-opacity="0.584" vector-effect="non-scaling-stroke" d="
  M 35.85 17.44
  L 36.31 13.69
  A 0.56 0.56 0.0 0 0 35.75 13.06
  L 9.27 13.05
  Q 8.75 13.05 8.81 13.57
  L 9.58 20.59"
/>
<path stroke="#dbdbdb" stroke-opacity="0.584" vector-effect="non-scaling-stroke" d="
  M 44.3180 23.9180
  A 1.15 1.15 0.0 0 0 43.2467 22.6943
  L 40.1136 22.4862
  A 1.15 1.15 0.0 0 0 38.8899 23.5575
  L 38.4220 30.6020
  A 1.15 1.15 0.0 0 0 39.4933 31.8257
  L 42.6264 32.0338
  A 1.15 1.15 0.0 0 0 43.8501 30.9625
  L 44.3180 23.9180"
/>
</g>
<path fill="#ffffff" d="
  M 16.05 0.00
  L 19.75 0.00
  L 19.73 7.01
  Q 19.73 7.52 19.23 7.52
  L 16.51 7.51
  Q 16.02 7.51 16.02 7.01
  L 16.05 0.00
  Z"
/>
<rect fill="#ffffff" x="-1.87" y="-2.80" transform="translate(25.38,4.70) rotate(-0.2)" width="3.74" height="5.60" rx="0.42"/>
<path fill="#ffffff" d="
  M 47.92 25.51
  L 47.27 32.69
  C 44.63 36.17 42.28 35.69 38.31 35.57
  Q 37.83 35.56 37.80 36.03
  L 37.44 40.87
  Q 36.95 41.96 37.07 44.35
  Q 35.29 48.73 30.51 48.74
  Q 21.50 48.77 12.49 48.71
  Q 10.05 48.70 8.32 45.16
  L 4.69 10.87
  L 4.64 10.00
  Q 4.61 9.40 5.21 9.40
  L 39.98 9.41
  Q 40.55 9.41 40.49 9.98
  L 39.69 18.18
  Q 39.63 18.74 40.20 18.72
  Q 47.72 18.38 47.92 25.51
  Z
  M 9.58 20.59
  Q 10.85 35.98 12.07 43.99
  Q 12.19 44.80 13.29 44.98
  L 30.95 44.98
  Q 32.85 45.24 33.08 43.75
  Q 34.05 37.37 35.85 17.44
  L 36.31 13.69
  A 0.56 0.56 0.0 0 0 35.75 13.06
  L 9.27 13.05
  Q 8.75 13.05 8.81 13.57
  L 9.58 20.59
  Z
  M 44.3180 23.9180
  A 1.15 1.15 0.0 0 0 43.2467 22.6943
  L 40.1136 22.4862
  A 1.15 1.15 0.0 0 0 38.8899 23.5575
  L 38.4220 30.6020
  A 1.15 1.15 0.0 0 0 39.4933 31.8257
  L 42.6264 32.0338
  A 1.15 1.15 0.0 0 0 43.8501 30.9625
  L 44.3180 23.9180
  Z"
/>
<path fill="#010100" fill-opacity="0.051" d="
  M 4.69 10.87
  L 8.32 45.16
  Q 7.77 48.32 9.41 50.45
  C 12.04 53.87 19.05 52.78 22.88 53.00
  Q 24.78 53.11 26.64 53.24
  Q 30.40 53.51 32.23 52.97
  Q 37.98 51.27 37.07 44.35
  Q 36.95 41.96 37.44 40.87
  Q 38.65 40.43 43.30 39.60
  Q 48.15 38.74 47.27 32.69
  L 47.92 25.51
  Q 48.62 25.27 49.18 25.38
  Q 49.71 25.48 49.81 26.01
  Q 50.65 30.90 50.10 34.49
  Q 49.01 41.57 41.68 42.01
  Q 40.83 42.06 40.91 42.92
  Q 40.94 43.23 40.55 43.13
  A 0.61 0.60 -78.7 0 0 39.81 43.63
  C 39.42 46.23 39.61 49.33 38.04 51.41
  Q 35.16 55.22 30.11 55.27
  C 23.90 55.34 16.91 55.94 11.74 54.88
  Q 8.36 54.18 6.59 50.71
  C 5.80 49.17 5.78 47.09 5.28 45.22
  Q 4.97 44.05 4.97 42.98
  Q 4.97 40.13 4.53 37.30
  Q 3.96 33.62 3.85 31.67
  Q 3.40 23.58 2.21 15.56
  A 1.40 1.40 0.0 0 1 2.40 14.61
  L 4.69 10.87
  Z"
/>
<path fill="#000000" fill-opacity="0.165" d="
  M 35.85 17.44
  Q 23.77 16.81 12.00 17.22
  Q 9.90 17.29 9.58 20.59
  L 8.81 13.57
  Q 8.75 13.05 9.27 13.05
  L 35.75 13.06
  A 0.56 0.56 0.0 0 1 36.31 13.69
  L 35.85 17.44
  Z"
/>
<path fill="#010100" fill-opacity="0.051" d="
  M 35.85 17.44
  Q 34.05 37.37 33.08 43.75
  Q 32.85 45.24 30.95 44.98
  L 33.52 21.30
  A 1.30 1.29 3.0 0 0 32.23 19.87
  L 13.50 19.88
  A 1.97 1.96 85.7 0 0 11.56 22.14
  Q 12.96 31.39 13.43 39.23
  C 13.54 41.03 14.48 42.82 13.29 44.98
  Q 12.19 44.80 12.07 43.99
  Q 10.85 35.98 9.58 20.59
  Q 9.90 17.29 12.00 17.22
  Q 23.77 16.81 35.85 17.44
  Z"
/>
<rect fill="#000000" fill-opacity="0.165" x="-2.72" y="-4.68" transform="translate(41.37,27.26) rotate(3.8)" width="5.44" height="9.36" rx="1.15"/>
<path fill="#000000" fill-opacity="0.165" d="
  M 47.27 32.69
  Q 48.15 38.74 43.30 39.60
  Q 38.65 40.43 37.44 40.87
  L 37.80 36.03
  Q 37.83 35.56 38.31 35.57
  C 42.28 35.69 44.63 36.17 47.27 32.69
  Z"
/>
<path fill="#000000" fill-opacity="0.165" d="
  M 37.07 44.35
  Q 37.98 51.27 32.23 52.97
  Q 30.40 53.51 26.64 53.24
  Q 24.78 53.11 22.88 53.00
  C 19.05 52.78 12.04 53.87 9.41 50.45
  Q 7.77 48.32 8.32 45.16
  Q 10.05 48.70 12.49 48.71
  Q 21.50 48.77 30.51 48.74
  Q 35.29 48.73 37.07 44.35
  Z"
/>
</svg>
